<mxfile host="app.diagrams.net" modified="2020-11-16T06:29:19.243Z" agent="5.0 (Windows NT 10.0; Win64; x64) AppleWebKit/537.36 (KHTML, like Gecko) Chrome/86.0.4240.198 Safari/537.36" etag="NW-UaUm2ZqOeN75DQgFb" version="13.9.8" type="github">
  <diagram id="R2lEEEUBdFMjLlhIrx00" name="Page-1">
    <mxGraphModel dx="1952" dy="621" grid="1" gridSize="10" guides="1" tooltips="1" connect="1" arrows="1" fold="1" page="1" pageScale="1" pageWidth="850" pageHeight="1100" math="0" shadow="0" extFonts="Permanent Marker^https://fonts.googleapis.com/css?family=Permanent+Marker">
      <root>
        <mxCell id="0" />
        <mxCell id="1" parent="0" />
        <mxCell id="9PuMKOnLG3AgwLjPk5vz-7" value="Beneficiary" style="swimlane;childLayout=stackLayout;horizontal=1;startSize=30;horizontalStack=0;rounded=1;fontSize=14;fontStyle=0;strokeWidth=2;resizeParent=0;resizeLast=1;shadow=0;dashed=0;align=center;fillColor=#1ba1e2;strokeColor=#006EAF;fontColor=#ffffff;" vertex="1" collapsed="1" parent="1">
          <mxGeometry x="305" y="475" width="100" height="30" as="geometry">
            <mxRectangle x="220" y="130" width="160" height="120" as="alternateBounds" />
          </mxGeometry>
        </mxCell>
        <mxCell id="9PuMKOnLG3AgwLjPk5vz-79" style="edgeStyle=orthogonalEdgeStyle;rounded=0;orthogonalLoop=1;jettySize=auto;html=1;exitX=1;exitY=0.5;exitDx=0;exitDy=0;entryX=0;entryY=0.75;entryDx=0;entryDy=0;" edge="1" parent="1" source="9PuMKOnLG3AgwLjPk5vz-12" target="9PuMKOnLG3AgwLjPk5vz-18">
          <mxGeometry relative="1" as="geometry" />
        </mxCell>
        <mxCell id="9PuMKOnLG3AgwLjPk5vz-82" style="edgeStyle=orthogonalEdgeStyle;rounded=0;orthogonalLoop=1;jettySize=auto;html=1;exitX=0;exitY=0.5;exitDx=0;exitDy=0;entryX=1;entryY=0.5;entryDx=0;entryDy=0;" edge="1" parent="1" source="9PuMKOnLG3AgwLjPk5vz-12" target="9PuMKOnLG3AgwLjPk5vz-24">
          <mxGeometry relative="1" as="geometry" />
        </mxCell>
        <mxCell id="9PuMKOnLG3AgwLjPk5vz-85" style="edgeStyle=orthogonalEdgeStyle;rounded=0;orthogonalLoop=1;jettySize=auto;html=1;exitX=0.25;exitY=1;exitDx=0;exitDy=0;entryX=1;entryY=0.5;entryDx=0;entryDy=0;" edge="1" parent="1" source="9PuMKOnLG3AgwLjPk5vz-12" target="9PuMKOnLG3AgwLjPk5vz-26">
          <mxGeometry relative="1" as="geometry" />
        </mxCell>
        <mxCell id="9PuMKOnLG3AgwLjPk5vz-12" value="Project" style="swimlane;childLayout=stackLayout;horizontal=1;startSize=30;horizontalStack=0;rounded=1;fontSize=14;fontStyle=0;strokeWidth=2;resizeParent=0;resizeLast=1;shadow=0;dashed=0;align=center;fillColor=#1ba1e2;strokeColor=#006EAF;fontColor=#ffffff;" vertex="1" collapsed="1" parent="1">
          <mxGeometry x="525" y="185" width="100" height="30" as="geometry">
            <mxRectangle x="120" y="150" width="160" height="120" as="alternateBounds" />
          </mxGeometry>
        </mxCell>
        <mxCell id="9PuMKOnLG3AgwLjPk5vz-81" style="edgeStyle=orthogonalEdgeStyle;rounded=0;orthogonalLoop=1;jettySize=auto;html=1;exitX=0.25;exitY=1;exitDx=0;exitDy=0;entryX=0.25;entryY=0;entryDx=0;entryDy=0;" edge="1" parent="1" source="9PuMKOnLG3AgwLjPk5vz-14" target="9PuMKOnLG3AgwLjPk5vz-12">
          <mxGeometry relative="1" as="geometry" />
        </mxCell>
        <mxCell id="9PuMKOnLG3AgwLjPk5vz-14" value="Donors" style="swimlane;childLayout=stackLayout;horizontal=1;startSize=30;horizontalStack=0;rounded=1;fontSize=14;fontStyle=0;strokeWidth=2;resizeParent=0;resizeLast=1;shadow=0;dashed=0;align=center;fillColor=#1ba1e2;strokeColor=#006EAF;fontColor=#ffffff;" vertex="1" collapsed="1" parent="1">
          <mxGeometry x="525" y="55" width="100" height="30" as="geometry">
            <mxRectangle x="160" y="200" width="160" height="120" as="alternateBounds" />
          </mxGeometry>
        </mxCell>
        <mxCell id="9PuMKOnLG3AgwLjPk5vz-15" value="+Attribute1&#xa;+Attribute2&#xa;+Attribute3" style="align=left;strokeColor=none;fillColor=none;spacingLeft=4;fontSize=12;verticalAlign=top;resizable=0;rotatable=0;part=1;" vertex="1" parent="9PuMKOnLG3AgwLjPk5vz-14">
          <mxGeometry y="30" width="100" as="geometry" />
        </mxCell>
        <mxCell id="9PuMKOnLG3AgwLjPk5vz-77" style="edgeStyle=orthogonalEdgeStyle;rounded=0;orthogonalLoop=1;jettySize=auto;html=1;exitX=1;exitY=0.5;exitDx=0;exitDy=0;entryX=0.5;entryY=1;entryDx=0;entryDy=0;" edge="1" parent="1" source="9PuMKOnLG3AgwLjPk5vz-16" target="9PuMKOnLG3AgwLjPk5vz-18">
          <mxGeometry relative="1" as="geometry" />
        </mxCell>
        <mxCell id="9PuMKOnLG3AgwLjPk5vz-16" value="Regions" style="swimlane;childLayout=stackLayout;horizontal=1;startSize=30;horizontalStack=0;rounded=1;fontSize=14;fontStyle=0;strokeWidth=2;resizeParent=0;resizeLast=1;shadow=0;dashed=0;align=center;fillColor=#1ba1e2;strokeColor=#006EAF;fontColor=#ffffff;" vertex="1" collapsed="1" parent="1">
          <mxGeometry x="550" y="245" width="100" height="30" as="geometry">
            <mxRectangle x="120" y="280" width="160" height="120" as="alternateBounds" />
          </mxGeometry>
        </mxCell>
        <mxCell id="9PuMKOnLG3AgwLjPk5vz-18" value="Project Location" style="swimlane;childLayout=stackLayout;horizontal=1;startSize=30;horizontalStack=0;rounded=1;fontSize=14;fontStyle=0;strokeWidth=2;resizeParent=0;resizeLast=1;shadow=0;dashed=0;align=center;fillColor=#1ba1e2;strokeColor=#006EAF;fontColor=#ffffff;" vertex="1" collapsed="1" parent="1">
          <mxGeometry x="720" y="205" width="130" height="30" as="geometry">
            <mxRectangle x="310" y="120" width="160" height="120" as="alternateBounds" />
          </mxGeometry>
        </mxCell>
        <mxCell id="9PuMKOnLG3AgwLjPk5vz-80" style="edgeStyle=orthogonalEdgeStyle;rounded=0;orthogonalLoop=1;jettySize=auto;html=1;exitX=0.5;exitY=0;exitDx=0;exitDy=0;entryX=0.5;entryY=0;entryDx=0;entryDy=0;" edge="1" parent="1" source="9PuMKOnLG3AgwLjPk5vz-20" target="9PuMKOnLG3AgwLjPk5vz-12">
          <mxGeometry relative="1" as="geometry" />
        </mxCell>
        <mxCell id="9PuMKOnLG3AgwLjPk5vz-20" value="Country Program" style="swimlane;childLayout=stackLayout;horizontal=1;startSize=30;horizontalStack=0;rounded=1;fontSize=14;fontStyle=0;strokeWidth=2;resizeParent=0;resizeLast=1;shadow=0;dashed=0;align=center;fillColor=#1ba1e2;strokeColor=#006EAF;fontColor=#ffffff;" vertex="1" collapsed="1" parent="1">
          <mxGeometry x="625" y="135" width="140" height="30" as="geometry">
            <mxRectangle x="275" y="155" width="160" height="120" as="alternateBounds" />
          </mxGeometry>
        </mxCell>
        <mxCell id="9PuMKOnLG3AgwLjPk5vz-76" style="edgeStyle=orthogonalEdgeStyle;rounded=0;orthogonalLoop=1;jettySize=auto;html=1;exitX=0.5;exitY=0;exitDx=0;exitDy=0;entryX=0.5;entryY=1;entryDx=0;entryDy=0;" edge="1" parent="1" source="9PuMKOnLG3AgwLjPk5vz-22" target="9PuMKOnLG3AgwLjPk5vz-16">
          <mxGeometry relative="1" as="geometry" />
        </mxCell>
        <mxCell id="9PuMKOnLG3AgwLjPk5vz-22" value="Countries" style="swimlane;childLayout=stackLayout;horizontal=1;startSize=30;horizontalStack=0;rounded=1;fontSize=14;fontStyle=0;strokeWidth=2;resizeParent=0;resizeLast=1;shadow=0;dashed=0;align=center;fillColor=#1ba1e2;strokeColor=#006EAF;fontColor=#ffffff;" vertex="1" collapsed="1" parent="1">
          <mxGeometry x="590" y="405" width="90" height="30" as="geometry">
            <mxRectangle x="265" y="300" width="160" height="120" as="alternateBounds" />
          </mxGeometry>
        </mxCell>
        <mxCell id="9PuMKOnLG3AgwLjPk5vz-24" value="Sectors" style="swimlane;childLayout=stackLayout;horizontal=1;startSize=30;horizontalStack=0;rounded=1;fontSize=14;fontStyle=0;strokeWidth=2;resizeParent=0;resizeLast=1;shadow=0;dashed=0;align=center;fillColor=#1ba1e2;strokeColor=#006EAF;fontColor=#ffffff;" vertex="1" collapsed="1" parent="1">
          <mxGeometry x="370" y="95" width="80" height="30" as="geometry">
            <mxRectangle x="90" y="120" width="160" height="120" as="alternateBounds" />
          </mxGeometry>
        </mxCell>
        <mxCell id="9PuMKOnLG3AgwLjPk5vz-84" style="edgeStyle=orthogonalEdgeStyle;rounded=0;orthogonalLoop=1;jettySize=auto;html=1;exitX=0.75;exitY=0;exitDx=0;exitDy=0;entryX=0.75;entryY=1;entryDx=0;entryDy=0;" edge="1" parent="1" source="9PuMKOnLG3AgwLjPk5vz-26" target="9PuMKOnLG3AgwLjPk5vz-31">
          <mxGeometry relative="1" as="geometry" />
        </mxCell>
        <mxCell id="9PuMKOnLG3AgwLjPk5vz-86" style="edgeStyle=orthogonalEdgeStyle;rounded=0;orthogonalLoop=1;jettySize=auto;html=1;exitX=0.25;exitY=0;exitDx=0;exitDy=0;entryX=1;entryY=0.5;entryDx=0;entryDy=0;" edge="1" parent="1" source="9PuMKOnLG3AgwLjPk5vz-26" target="9PuMKOnLG3AgwLjPk5vz-41">
          <mxGeometry relative="1" as="geometry" />
        </mxCell>
        <mxCell id="9PuMKOnLG3AgwLjPk5vz-87" style="edgeStyle=orthogonalEdgeStyle;rounded=0;orthogonalLoop=1;jettySize=auto;html=1;exitX=0.5;exitY=0;exitDx=0;exitDy=0;entryX=0.5;entryY=0;entryDx=0;entryDy=0;" edge="1" parent="1" source="9PuMKOnLG3AgwLjPk5vz-26" target="9PuMKOnLG3AgwLjPk5vz-45">
          <mxGeometry relative="1" as="geometry" />
        </mxCell>
        <mxCell id="9PuMKOnLG3AgwLjPk5vz-94" style="edgeStyle=orthogonalEdgeStyle;rounded=0;orthogonalLoop=1;jettySize=auto;html=1;exitX=0;exitY=0.5;exitDx=0;exitDy=0;entryX=0.5;entryY=0;entryDx=0;entryDy=0;" edge="1" parent="1" source="9PuMKOnLG3AgwLjPk5vz-26" target="9PuMKOnLG3AgwLjPk5vz-43">
          <mxGeometry relative="1" as="geometry" />
        </mxCell>
        <mxCell id="9PuMKOnLG3AgwLjPk5vz-108" style="edgeStyle=orthogonalEdgeStyle;rounded=0;orthogonalLoop=1;jettySize=auto;html=1;exitX=0.5;exitY=1;exitDx=0;exitDy=0;entryX=0.5;entryY=0;entryDx=0;entryDy=0;" edge="1" parent="1" source="9PuMKOnLG3AgwLjPk5vz-26" target="9PuMKOnLG3AgwLjPk5vz-72">
          <mxGeometry relative="1" as="geometry" />
        </mxCell>
        <mxCell id="9PuMKOnLG3AgwLjPk5vz-26" value="Services" style="swimlane;childLayout=stackLayout;horizontal=1;startSize=30;horizontalStack=0;rounded=1;fontSize=14;fontStyle=0;strokeWidth=2;resizeParent=0;resizeLast=1;shadow=0;dashed=0;align=center;fillColor=#1ba1e2;strokeColor=#006EAF;fontColor=#ffffff;" vertex="1" collapsed="1" parent="1">
          <mxGeometry x="210" y="160" width="90" height="30" as="geometry">
            <mxRectangle x="80" y="220" width="160" height="120" as="alternateBounds" />
          </mxGeometry>
        </mxCell>
        <mxCell id="9PuMKOnLG3AgwLjPk5vz-29" value="Household" style="swimlane;childLayout=stackLayout;horizontal=1;startSize=30;horizontalStack=0;rounded=1;fontSize=14;fontStyle=0;strokeWidth=2;resizeParent=0;resizeLast=1;shadow=0;dashed=0;align=center;fillColor=#1ba1e2;strokeColor=#006EAF;fontColor=#ffffff;" vertex="1" collapsed="1" parent="1">
          <mxGeometry x="440" y="475" width="100" height="30" as="geometry">
            <mxRectangle x="250" y="320" width="160" height="120" as="alternateBounds" />
          </mxGeometry>
        </mxCell>
        <mxCell id="9PuMKOnLG3AgwLjPk5vz-31" value="Follow Up" style="swimlane;childLayout=stackLayout;horizontal=1;startSize=30;horizontalStack=0;rounded=1;fontSize=14;fontStyle=0;strokeWidth=2;resizeParent=0;resizeLast=1;shadow=0;dashed=0;align=center;arcSize=0;fillColor=#1ba1e2;strokeColor=#006EAF;fontColor=#ffffff;" vertex="1" collapsed="1" parent="1">
          <mxGeometry x="210" y="40" width="90" height="30" as="geometry">
            <mxRectangle x="65" y="30" width="160" height="120" as="alternateBounds" />
          </mxGeometry>
        </mxCell>
        <mxCell id="9PuMKOnLG3AgwLjPk5vz-101" style="edgeStyle=orthogonalEdgeStyle;rounded=0;orthogonalLoop=1;jettySize=auto;html=1;exitX=1;exitY=0.5;exitDx=0;exitDy=0;entryX=0;entryY=0.5;entryDx=0;entryDy=0;" edge="1" parent="1" source="9PuMKOnLG3AgwLjPk5vz-36" target="9PuMKOnLG3AgwLjPk5vz-38">
          <mxGeometry relative="1" as="geometry" />
        </mxCell>
        <mxCell id="9PuMKOnLG3AgwLjPk5vz-36" value="Distributions" style="swimlane;childLayout=stackLayout;horizontal=1;startSize=30;horizontalStack=0;rounded=1;fontSize=14;fontStyle=0;strokeWidth=2;resizeParent=0;resizeLast=1;shadow=0;dashed=0;align=center;fillColor=#1ba1e2;strokeColor=#006EAF;fontColor=#ffffff;" vertex="1" collapsed="1" parent="1">
          <mxGeometry x="220" y="340" width="110" height="30" as="geometry">
            <mxRectangle x="65" y="230" width="160" height="120" as="alternateBounds" />
          </mxGeometry>
        </mxCell>
        <mxCell id="9PuMKOnLG3AgwLjPk5vz-105" style="edgeStyle=orthogonalEdgeStyle;rounded=0;orthogonalLoop=1;jettySize=auto;html=1;exitX=0.75;exitY=1;exitDx=0;exitDy=0;entryX=0.5;entryY=0;entryDx=0;entryDy=0;" edge="1" parent="1" source="9PuMKOnLG3AgwLjPk5vz-38">
          <mxGeometry relative="1" as="geometry">
            <mxPoint x="490" y="475" as="targetPoint" />
          </mxGeometry>
        </mxCell>
        <mxCell id="9PuMKOnLG3AgwLjPk5vz-106" style="edgeStyle=orthogonalEdgeStyle;rounded=0;orthogonalLoop=1;jettySize=auto;html=1;exitX=0.25;exitY=1;exitDx=0;exitDy=0;" edge="1" parent="1" source="9PuMKOnLG3AgwLjPk5vz-38" target="9PuMKOnLG3AgwLjPk5vz-7">
          <mxGeometry relative="1" as="geometry" />
        </mxCell>
        <mxCell id="9PuMKOnLG3AgwLjPk5vz-38" value="Items" style="swimlane;childLayout=stackLayout;horizontal=1;startSize=30;horizontalStack=0;rounded=1;fontSize=14;fontStyle=0;strokeWidth=2;resizeParent=0;resizeLast=1;shadow=0;dashed=0;align=center;fillColor=#1ba1e2;strokeColor=#006EAF;fontColor=#ffffff;" vertex="1" collapsed="1" parent="1">
          <mxGeometry x="380" y="340" width="70" height="30" as="geometry">
            <mxRectangle x="90" y="280" width="160" height="120" as="alternateBounds" />
          </mxGeometry>
        </mxCell>
        <mxCell id="9PuMKOnLG3AgwLjPk5vz-41" value="Third Party Implementer" style="swimlane;childLayout=stackLayout;horizontal=1;startSize=30;horizontalStack=0;rounded=1;fontSize=14;fontStyle=0;strokeWidth=2;resizeParent=0;resizeLast=1;shadow=0;dashed=0;align=center;fillColor=#1ba1e2;strokeColor=#006EAF;fontColor=#ffffff;" vertex="1" collapsed="1" parent="1">
          <mxGeometry x="-50" y="100" width="180" height="30" as="geometry">
            <mxRectangle x="305" y="60" width="160" height="120" as="alternateBounds" />
          </mxGeometry>
        </mxCell>
        <mxCell id="9PuMKOnLG3AgwLjPk5vz-98" style="edgeStyle=orthogonalEdgeStyle;rounded=0;orthogonalLoop=1;jettySize=auto;html=1;exitX=1;exitY=0.5;exitDx=0;exitDy=0;entryX=0.5;entryY=0;entryDx=0;entryDy=0;" edge="1" parent="1" source="9PuMKOnLG3AgwLjPk5vz-43" target="9PuMKOnLG3AgwLjPk5vz-64">
          <mxGeometry relative="1" as="geometry">
            <mxPoint x="80" y="240" as="targetPoint" />
          </mxGeometry>
        </mxCell>
        <mxCell id="9PuMKOnLG3AgwLjPk5vz-43" value="Asessment" style="swimlane;childLayout=stackLayout;horizontal=1;startSize=30;horizontalStack=0;rounded=1;fontSize=14;fontStyle=0;strokeWidth=2;resizeParent=0;resizeLast=1;shadow=0;dashed=0;align=center;fillColor=#1ba1e2;strokeColor=#006EAF;fontColor=#ffffff;" vertex="1" collapsed="1" parent="1">
          <mxGeometry x="-40" y="290" width="100" height="30" as="geometry">
            <mxRectangle x="-90" y="180" width="160" height="120" as="alternateBounds" />
          </mxGeometry>
        </mxCell>
        <mxCell id="9PuMKOnLG3AgwLjPk5vz-88" style="edgeStyle=orthogonalEdgeStyle;rounded=0;orthogonalLoop=1;jettySize=auto;html=1;exitX=0.5;exitY=1;exitDx=0;exitDy=0;entryX=0;entryY=0.5;entryDx=0;entryDy=0;" edge="1" parent="1" source="9PuMKOnLG3AgwLjPk5vz-45" target="9PuMKOnLG3AgwLjPk5vz-43">
          <mxGeometry relative="1" as="geometry" />
        </mxCell>
        <mxCell id="9PuMKOnLG3AgwLjPk5vz-45" value="Referral" style="swimlane;childLayout=stackLayout;horizontal=1;startSize=30;horizontalStack=0;rounded=1;fontSize=14;fontStyle=0;strokeWidth=2;resizeParent=0;resizeLast=1;shadow=0;dashed=0;align=center;fillColor=#1ba1e2;strokeColor=#006EAF;fontColor=#ffffff;" vertex="1" collapsed="1" parent="1">
          <mxGeometry x="-270" y="100" width="80" height="30" as="geometry">
            <mxRectangle x="-280" y="185" width="160" height="120" as="alternateBounds" />
          </mxGeometry>
        </mxCell>
        <mxCell id="9PuMKOnLG3AgwLjPk5vz-96" style="edgeStyle=orthogonalEdgeStyle;rounded=0;orthogonalLoop=1;jettySize=auto;html=1;exitX=0.5;exitY=0;exitDx=0;exitDy=0;entryX=0.5;entryY=1;entryDx=0;entryDy=0;" edge="1" parent="1" source="9PuMKOnLG3AgwLjPk5vz-47" target="9PuMKOnLG3AgwLjPk5vz-43">
          <mxGeometry relative="1" as="geometry" />
        </mxCell>
        <mxCell id="9PuMKOnLG3AgwLjPk5vz-47" value="Questionnaire" style="swimlane;childLayout=stackLayout;horizontal=1;startSize=30;horizontalStack=0;rounded=1;fontSize=14;fontStyle=0;strokeWidth=2;resizeParent=0;resizeLast=1;shadow=0;dashed=0;align=center;fillColor=#1ba1e2;strokeColor=#006EAF;fontColor=#ffffff;" vertex="1" collapsed="1" parent="1">
          <mxGeometry x="-190" y="370" width="120" height="30" as="geometry">
            <mxRectangle x="-190" y="290" width="160" height="120" as="alternateBounds" />
          </mxGeometry>
        </mxCell>
        <mxCell id="9PuMKOnLG3AgwLjPk5vz-49" value="Table" style="shape=table;startSize=30;container=1;collapsible=1;childLayout=tableLayout;fixedRows=1;rowLines=0;fontStyle=1;align=center;resizeLast=1;" vertex="1" parent="9PuMKOnLG3AgwLjPk5vz-47">
          <mxGeometry y="30" width="120" as="geometry" />
        </mxCell>
        <mxCell id="9PuMKOnLG3AgwLjPk5vz-50" value="" style="shape=partialRectangle;collapsible=0;dropTarget=0;pointerEvents=0;fillColor=none;top=0;left=0;bottom=1;right=0;points=[[0,0.5],[1,0.5]];portConstraint=eastwest;" vertex="1" parent="9PuMKOnLG3AgwLjPk5vz-49">
          <mxGeometry y="30" width="180" height="30" as="geometry" />
        </mxCell>
        <mxCell id="9PuMKOnLG3AgwLjPk5vz-51" value="PK" style="shape=partialRectangle;connectable=0;fillColor=none;top=0;left=0;bottom=0;right=0;fontStyle=1;overflow=hidden;" vertex="1" parent="9PuMKOnLG3AgwLjPk5vz-50">
          <mxGeometry width="30" height="30" as="geometry" />
        </mxCell>
        <mxCell id="9PuMKOnLG3AgwLjPk5vz-52" value="UniqueID" style="shape=partialRectangle;connectable=0;fillColor=none;top=0;left=0;bottom=0;right=0;align=left;spacingLeft=6;fontStyle=5;overflow=hidden;" vertex="1" parent="9PuMKOnLG3AgwLjPk5vz-50">
          <mxGeometry x="30" width="150" height="30" as="geometry" />
        </mxCell>
        <mxCell id="9PuMKOnLG3AgwLjPk5vz-53" value="" style="shape=partialRectangle;collapsible=0;dropTarget=0;pointerEvents=0;fillColor=none;top=0;left=0;bottom=0;right=0;points=[[0,0.5],[1,0.5]];portConstraint=eastwest;" vertex="1" parent="9PuMKOnLG3AgwLjPk5vz-49">
          <mxGeometry y="60" width="180" height="30" as="geometry" />
        </mxCell>
        <mxCell id="9PuMKOnLG3AgwLjPk5vz-54" value="" style="shape=partialRectangle;connectable=0;fillColor=none;top=0;left=0;bottom=0;right=0;editable=1;overflow=hidden;" vertex="1" parent="9PuMKOnLG3AgwLjPk5vz-53">
          <mxGeometry width="30" height="30" as="geometry" />
        </mxCell>
        <mxCell id="9PuMKOnLG3AgwLjPk5vz-55" value="Row 1" style="shape=partialRectangle;connectable=0;fillColor=none;top=0;left=0;bottom=0;right=0;align=left;spacingLeft=6;overflow=hidden;" vertex="1" parent="9PuMKOnLG3AgwLjPk5vz-53">
          <mxGeometry x="30" width="150" height="30" as="geometry" />
        </mxCell>
        <mxCell id="9PuMKOnLG3AgwLjPk5vz-56" value="" style="shape=partialRectangle;collapsible=0;dropTarget=0;pointerEvents=0;fillColor=none;top=0;left=0;bottom=0;right=0;points=[[0,0.5],[1,0.5]];portConstraint=eastwest;" vertex="1" parent="9PuMKOnLG3AgwLjPk5vz-49">
          <mxGeometry y="90" width="180" height="30" as="geometry" />
        </mxCell>
        <mxCell id="9PuMKOnLG3AgwLjPk5vz-57" value="" style="shape=partialRectangle;connectable=0;fillColor=none;top=0;left=0;bottom=0;right=0;editable=1;overflow=hidden;" vertex="1" parent="9PuMKOnLG3AgwLjPk5vz-56">
          <mxGeometry width="30" height="30" as="geometry" />
        </mxCell>
        <mxCell id="9PuMKOnLG3AgwLjPk5vz-58" value="Row 2" style="shape=partialRectangle;connectable=0;fillColor=none;top=0;left=0;bottom=0;right=0;align=left;spacingLeft=6;overflow=hidden;" vertex="1" parent="9PuMKOnLG3AgwLjPk5vz-56">
          <mxGeometry x="30" width="150" height="30" as="geometry" />
        </mxCell>
        <mxCell id="9PuMKOnLG3AgwLjPk5vz-59" value="" style="shape=partialRectangle;collapsible=0;dropTarget=0;pointerEvents=0;fillColor=none;top=0;left=0;bottom=0;right=0;points=[[0,0.5],[1,0.5]];portConstraint=eastwest;" vertex="1" parent="9PuMKOnLG3AgwLjPk5vz-49">
          <mxGeometry y="120" width="180" height="30" as="geometry" />
        </mxCell>
        <mxCell id="9PuMKOnLG3AgwLjPk5vz-60" value="" style="shape=partialRectangle;connectable=0;fillColor=none;top=0;left=0;bottom=0;right=0;editable=1;overflow=hidden;" vertex="1" parent="9PuMKOnLG3AgwLjPk5vz-59">
          <mxGeometry width="30" height="30" as="geometry" />
        </mxCell>
        <mxCell id="9PuMKOnLG3AgwLjPk5vz-61" value="Row 3" style="shape=partialRectangle;connectable=0;fillColor=none;top=0;left=0;bottom=0;right=0;align=left;spacingLeft=6;overflow=hidden;" vertex="1" parent="9PuMKOnLG3AgwLjPk5vz-59">
          <mxGeometry x="30" width="150" height="30" as="geometry" />
        </mxCell>
        <mxCell id="9PuMKOnLG3AgwLjPk5vz-110" style="edgeStyle=orthogonalEdgeStyle;rounded=0;orthogonalLoop=1;jettySize=auto;html=1;exitX=1;exitY=0.5;exitDx=0;exitDy=0;entryX=0;entryY=0.5;entryDx=0;entryDy=0;" edge="1" parent="1" source="9PuMKOnLG3AgwLjPk5vz-64" target="9PuMKOnLG3AgwLjPk5vz-36">
          <mxGeometry relative="1" as="geometry" />
        </mxCell>
        <mxCell id="9PuMKOnLG3AgwLjPk5vz-64" value="Scoring" style="swimlane;childLayout=stackLayout;horizontal=1;startSize=30;horizontalStack=0;rounded=1;fontSize=14;fontStyle=0;strokeWidth=2;resizeParent=0;resizeLast=1;shadow=0;dashed=0;align=center;fillColor=#1ba1e2;strokeColor=#006EAF;fontColor=#ffffff;" vertex="1" collapsed="1" parent="1">
          <mxGeometry x="90" y="320" width="80" height="30" as="geometry">
            <mxRectangle x="-20" y="360" width="160" height="120" as="alternateBounds" />
          </mxGeometry>
        </mxCell>
        <mxCell id="9PuMKOnLG3AgwLjPk5vz-97" style="edgeStyle=orthogonalEdgeStyle;rounded=0;orthogonalLoop=1;jettySize=auto;html=1;exitX=0.5;exitY=0;exitDx=0;exitDy=0;entryX=1;entryY=0.5;entryDx=0;entryDy=0;" edge="1" parent="1" source="9PuMKOnLG3AgwLjPk5vz-66" target="9PuMKOnLG3AgwLjPk5vz-47">
          <mxGeometry relative="1" as="geometry" />
        </mxCell>
        <mxCell id="9PuMKOnLG3AgwLjPk5vz-99" style="edgeStyle=orthogonalEdgeStyle;rounded=0;orthogonalLoop=1;jettySize=auto;html=1;exitX=0.75;exitY=0;exitDx=0;exitDy=0;entryX=0.5;entryY=1;entryDx=0;entryDy=0;" edge="1" parent="1" source="9PuMKOnLG3AgwLjPk5vz-66" target="9PuMKOnLG3AgwLjPk5vz-36">
          <mxGeometry relative="1" as="geometry">
            <mxPoint x="270" y="375" as="targetPoint" />
          </mxGeometry>
        </mxCell>
        <mxCell id="9PuMKOnLG3AgwLjPk5vz-111" style="edgeStyle=orthogonalEdgeStyle;rounded=0;orthogonalLoop=1;jettySize=auto;html=1;exitX=0.5;exitY=1;exitDx=0;exitDy=0;entryX=0.5;entryY=0;entryDx=0;entryDy=0;" edge="1" parent="1" source="9PuMKOnLG3AgwLjPk5vz-66" target="9PuMKOnLG3AgwLjPk5vz-68">
          <mxGeometry relative="1" as="geometry" />
        </mxCell>
        <mxCell id="9PuMKOnLG3AgwLjPk5vz-66" value="Indicators" style="swimlane;childLayout=stackLayout;horizontal=1;startSize=30;horizontalStack=0;rounded=1;fontSize=14;fontStyle=0;strokeWidth=2;resizeParent=0;resizeLast=1;shadow=0;dashed=0;align=center;fillColor=#1ba1e2;strokeColor=#006EAF;fontColor=#ffffff;" vertex="1" collapsed="1" parent="1">
          <mxGeometry x="150" y="445" width="90" height="30" as="geometry">
            <mxRectangle x="240" y="370" width="160" height="120" as="alternateBounds" />
          </mxGeometry>
        </mxCell>
        <mxCell id="9PuMKOnLG3AgwLjPk5vz-112" style="edgeStyle=orthogonalEdgeStyle;rounded=0;orthogonalLoop=1;jettySize=auto;html=1;exitX=0;exitY=0.5;exitDx=0;exitDy=0;entryX=1;entryY=0.5;entryDx=0;entryDy=0;" edge="1" parent="1" source="9PuMKOnLG3AgwLjPk5vz-68" target="9PuMKOnLG3AgwLjPk5vz-70">
          <mxGeometry relative="1" as="geometry" />
        </mxCell>
        <mxCell id="9PuMKOnLG3AgwLjPk5vz-68" value="Results" style="swimlane;childLayout=stackLayout;horizontal=1;startSize=30;horizontalStack=0;rounded=1;fontSize=14;fontStyle=0;strokeWidth=2;resizeParent=0;resizeLast=1;shadow=0;dashed=0;align=center;fillColor=#1ba1e2;strokeColor=#006EAF;fontColor=#ffffff;" vertex="1" collapsed="1" parent="1">
          <mxGeometry x="140" y="530" width="80" height="30" as="geometry">
            <mxRectangle x="60" y="340" width="160" height="120" as="alternateBounds" />
          </mxGeometry>
        </mxCell>
        <mxCell id="9PuMKOnLG3AgwLjPk5vz-70" value="Project" style="swimlane;childLayout=stackLayout;horizontal=1;startSize=30;horizontalStack=0;rounded=1;fontSize=14;fontStyle=0;strokeWidth=2;resizeParent=0;resizeLast=1;shadow=0;dashed=0;align=center;fillColor=#1ba1e2;strokeColor=#006EAF;fontColor=#ffffff;" vertex="1" collapsed="1" parent="1">
          <mxGeometry x="-40" y="535" width="80" height="30" as="geometry">
            <mxRectangle x="60" y="375" width="160" height="120" as="alternateBounds" />
          </mxGeometry>
        </mxCell>
        <mxCell id="9PuMKOnLG3AgwLjPk5vz-109" style="edgeStyle=orthogonalEdgeStyle;rounded=0;orthogonalLoop=1;jettySize=auto;html=1;exitX=0.5;exitY=1;exitDx=0;exitDy=0;entryX=0.5;entryY=0;entryDx=0;entryDy=0;" edge="1" parent="1" source="9PuMKOnLG3AgwLjPk5vz-72" target="9PuMKOnLG3AgwLjPk5vz-36">
          <mxGeometry relative="1" as="geometry" />
        </mxCell>
        <mxCell id="9PuMKOnLG3AgwLjPk5vz-72" value="Emergency" style="swimlane;childLayout=stackLayout;horizontal=1;startSize=30;horizontalStack=0;rounded=1;fontSize=14;fontStyle=0;strokeWidth=2;resizeParent=0;resizeLast=1;shadow=0;dashed=0;align=center;fillColor=#1ba1e2;strokeColor=#006EAF;fontColor=#ffffff;" vertex="1" collapsed="1" parent="1">
          <mxGeometry x="140" y="240" width="100" height="30" as="geometry">
            <mxRectangle x="-140" y="155" width="160" height="120" as="alternateBounds" />
          </mxGeometry>
        </mxCell>
      </root>
    </mxGraphModel>
  </diagram>
</mxfile>
